<?xml version="1.0" encoding="utf-8"?>
<!-- Generator: Adobe Illustrator 27.5.0, SVG Export Plug-In . SVG Version: 6.00 Build 0)  -->
<svg version="1.1" id="Capa_1" xmlns="http://www.w3.org/2000/svg" xmlns:xlink="http://www.w3.org/1999/xlink" x="0px" y="0px"
	 viewBox="0 0 590 150" style="enable-background:new 0 0 590 150;" xml:space="preserve">
<style type="text/css">
	.st0{fill:#CE836F;}
	.st1{fill-rule:evenodd;clip-rule:evenodd;fill:#FFFFFF;}
	.st2{fill:#FFFFFF;}
</style>
<g>
	<g>
		<path class="st0" d="M106.6,23.8c16.6,11.3,23.2-3.9,67.3,4.4c42.8,8.1,14.3,47.3,20.4,59.4c3.4,6.7,3.2,14,2.7,21.4
			c-0.6,10.3-10.3,18.5-22.3,19c-81.1,3.2-32.9,5.4-136.9,6.6c-8.1,0.1-17-0.1-23.1-5.2c-6.6-5.5-7.7-14.9-8.2-23.3
			C5,83.3-9.3,41.2,16.6,30C43.5,18.5,81.9,6.9,106.6,23.8z"/>
	</g>
	<g>
		<path class="st1" d="M19.3,63.1h-1.7v0.3h9.7v-6.1h-0.4c0,0,0,3.5-1.2,4.7c-1,1-2,1.1-3.7,1.1V51.9c0,0,1.2-0.1,1.7,0.5
			c0.9,0.9,1,2,1,3.6H25v-8.6h-0.3c0,1.6-0.1,2.7-1,3.6c-0.6,0.6-1.7,0.5-1.7,0.5V40.8c1.7,0,2.5,0.1,3.5,1.1
			c1.2,1.2,1.2,4.7,1.2,4.7H27v-6.1h-9.4v0.3h1.7V63.1L19.3,63.1z"/>
		<path class="st1" d="M45,40.8v22.3c1.7,0,2.7-0.1,3.7-1.1c1.2-1.2,1.2-4.7,1.2-4.7h0.3v6.1h-9.7v-0.3h1.7V40.8h-1.7v-0.3h6.1v0.3
			H45L45,40.8z"/>
		<path class="st1" d="M67.8,40.8v22.3c1.7,0,2.7-0.1,3.7-1.1c1.2-1.2,1.2-4.7,1.2-4.7H73v6.1h-9.7v-0.3H65V40.8h-1.7v-0.3h6.1v0.3
			H67.8L67.8,40.8z"/>
		<path class="st1" d="M87.9,63.1h-1.7v0.3h9.7v-6.1h-0.3c0,0,0,3.5-1.2,4.7c-1,1-2,1.1-3.7,1.1V51.9c0,0,1.2-0.1,1.7,0.5
			c0.9,0.9,1,2,1,3.6h0.3v-8.6h-0.3c0,1.6-0.1,2.7-1,3.6c-0.6,0.6-1.7,0.5-1.7,0.5V40.8c1.7,0,2.5,0.1,3.5,1.1
			c1.2,1.2,1.2,4.7,1.2,4.7h0.3v-6.1h-9.4v0.3h1.6V63.1L87.9,63.1z"/>
		<path class="st1" d="M94.5,62.5c0-0.3,0.2-0.6,0.6-0.6c0.3,0,0.6,0.2,0.6,0.6c0,0.3-0.2,0.6-0.6,0.6
			C94.7,63.1,94.5,62.8,94.5,62.5L94.5,62.5z M95.5,62.5c0-0.3-0.2-0.5-0.5-0.5s-0.5,0.2-0.5,0.5S94.7,63,95,63S95.5,62.8,95.5,62.5
			L95.5,62.5z M95.3,62.8L95.3,62.8L95,62.5h-0.1v0.3h-0.1v-0.6h0.3c0.2,0,0.2,0.1,0.2,0.2c0,0.1-0.1,0.2-0.2,0.2L95.3,62.8
			L95.3,62.8z M95,62.5c0.1,0,0.2,0,0.2-0.1s-0.1-0.1-0.2-0.1h-0.1L95,62.5L95,62.5L95,62.5z"/>
	</g>
	<g>
		<path class="st2" d="M20.1,111h-2.2V76.6h2.2V111z"/>
		<path class="st2" d="M60.9,112.1L32,81.4V111h-2.2V76.1l28.9,30.5v-30h2.2V112.1z"/>
		<path class="st2" d="M86.5,82.2c-1.6-2.5-3.7-4.1-7-4.1c-3.7,0-6.5,3-6.5,6.6s3.4,5.1,6.2,6.4l6.6,3.4c2.6,1.6,3.9,3.7,3.9,6.8
			c0,5.7-5.2,10-10.8,10c-4.8,0-8.5-3-10.1-7.4l1.9-0.9c1.5,3.7,4.2,6.2,8.3,6.2c4.5,0,8.5-3.6,8.5-8.1c0-3.9-4-5.5-6.9-7L74.4,91
			c-2.3-1.4-3.6-3.4-3.6-6.2c0-5.1,3.6-8.7,8.8-8.7c3.5,0,6.8,1.9,8.4,4.8L86.5,82.2z"/>
		<path class="st2" d="M99.8,111h-2.2V76.6h6.1c2.7,0,5.3,0.2,7.4,2s3.1,4.4,3.1,7.1c0,2.5-1,5.2-2.9,6.8c-2.1,1.8-5,2.2-7.7,2.2
			h-3.9L99.8,111L99.8,111z M103.8,92.6c2.2,0,4.2-0.3,6-1.9c1.5-1.4,2.2-3.1,2.2-5.2s-0.9-4.3-2.6-5.6c-1.7-1.3-3.9-1.4-6-1.4h-3.6
			v14L103.8,92.6L103.8,92.6z"/>
		<path class="st2" d="M123.6,111h-2.2V76.6h2.2V111z"/>
		<path class="st2" d="M150.3,111h-2.5l-11.2-16.3h-1.1V111h-2.2V76.6h4.3c2.8,0,5.5,0,7.8,1.7c2.5,1.7,3.5,4.5,3.5,7.4
			c0,6-4.2,9.1-9.9,9L150.3,111z M138.3,92.6c2.1,0,4.3-0.1,6-1.6c1.6-1.3,2.4-3.4,2.4-5.4c0-2.6-1.2-5.1-3.6-6.2
			c-1.8-0.9-4.2-0.8-6.2-0.8h-1.4v14H138.3z"/>
		<path class="st2" d="M161.2,99.7l-4.6,11.3h-2.2l14.4-35.5l14.4,35.5h-2.3l-4.6-11.3H161.2z M168.8,81L162,97.6h13.5L168.8,81z"/>
	</g>
</g>
<g>
	<path class="st2" d="M241.3,81.1c-1.3-2.2-2.9-3.2-5.5-3.2c-2.7,0-5.8,1.9-5.8,4.9c0,2.7,2.7,4.1,4.8,4.9l2.5,1
		c4.9,1.9,8.6,4.6,8.6,10.4c0,6.3-4.9,10.8-11,10.8c-5.6,0-9.9-4.1-10.7-9.7l4.3-0.9c0,3.8,3,6.5,6.7,6.5s6.4-3.1,6.4-6.7
		c0-3.7-3-5.3-5.9-6.5l-2.4-1c-3.9-1.7-7.5-3.9-7.5-8.7c0-5.6,4.9-8.9,10.2-8.9c3.8,0,7,1.9,8.9,5.2L241.3,81.1z"/>
	<path class="st2" d="M254.2,74.6v20.4c0,5.6,1.7,10.8,8.3,10.8s8.3-5.2,8.3-10.8V74.6h4.3v21.8c0,7.6-4.7,13.4-12.6,13.4
		s-12.6-5.8-12.6-13.4V74.6H254.2z"/>
	<path class="st2" d="M296.4,81.1c-1.3-2.2-2.9-3.2-5.5-3.2c-2.7,0-5.8,1.9-5.8,4.9c0,2.7,2.7,4.1,4.8,4.9l2.5,1
		c4.9,1.9,8.6,4.6,8.6,10.4c0,6.3-4.9,10.8-11,10.8c-5.6,0-9.9-4.1-10.7-9.7l4.3-0.9c0,3.8,3,6.5,6.7,6.5c3.7,0,6.4-3.1,6.4-6.7
		c0-3.7-3-5.3-5.9-6.5l-2.4-1c-3.9-1.7-7.5-3.9-7.5-8.7c0-5.6,4.9-8.9,10.2-8.9c3.8,0,7,1.9,8.9,5.2L296.4,81.1z"/>
	<path class="st2" d="M315,109.1h-4.3V78.5h-8.2v-3.9h20.7v3.9H315V109.1z"/>
	<path class="st2" d="M326.6,74.6h18.5v3.9h-14.2v9.7h13.8v3.9h-13.8v13h14.2v3.9h-18.5V74.6z"/>
	<path class="st2" d="M350,72.9l25.9,27.1V74.6h4.3v35.9l-25.9-27.1v25.7H350V72.9z"/>
	<path class="st2" d="M395.6,109.1h-4.3V78.5h-8.2v-3.9h20.7v3.9h-8.2V109.1z"/>
	<path class="st2" d="M408.4,100.4l-3.9,8.6h-4.6l16.5-36l16.5,36h-4.6l-3.9-8.6H408.4z M416.3,82.5l-6.1,14h12.3L416.3,82.5z"/>
	<path class="st2" d="M435.3,74.6h4.2c6.5,0,12.6,1.7,12.6,9.5c0,2.5-1.4,5.4-3.7,6.5v0.1c4.1,0.7,6.9,4.7,6.9,8.7
		c0,6.9-5.9,9.7-12,9.7h-8.1V74.6z M439.6,89.9h1.1c4.1,0,7.4-0.8,7.4-5.8c0-4.9-3.3-5.7-7.3-5.7h-1.2V89.9z M439.6,105.2h3.3
		c4,0,8.1-1.2,8.1-6.1c0-4.9-4.9-5.9-8.8-5.9h-2.7V105.2z"/>
	<path class="st2" d="M464.3,109.1H460V74.6h4.3V109.1z"/>
	<path class="st2" d="M475.1,105.1h10.5v3.9h-14.8V74.6h4.3V105.1z"/>
	<path class="st2" d="M492.6,109.1h-4.3V74.6h4.3V109.1z"/>
	<path class="st2" d="M498.6,74.6h7.1c10.6,0,19.4,5.6,19.4,17.1c0,11.8-8.6,17.4-19.5,17.4h-7V74.6z M502.9,105.1h1.5
		c8.8,0,16.4-3.3,16.4-13.3c0-10.1-7.6-13.3-16.4-13.3h-1.5V105.1z"/>
	<path class="st2" d="M534.3,100.4l-3.9,8.6h-4.6l16.5-36l16.5,36h-4.6l-3.9-8.6H534.3z M542.3,82.5l-6.1,14h12.3L542.3,82.5z"/>
	<path class="st2" d="M561.2,74.6h7.1c10.6,0,19.4,5.6,19.4,17.1c0,11.8-8.6,17.4-19.5,17.4h-7V74.6z M565.5,105.1h1.5
		c8.8,0,16.4-3.3,16.4-13.3c0-10.1-7.6-13.3-16.4-13.3h-1.5V105.1z"/>
</g>
</svg>
