<?xml version="1.0" encoding="utf-8"?>
<!-- Generator: Adobe Illustrator 27.5.0, SVG Export Plug-In . SVG Version: 6.00 Build 0)  -->
<svg version="1.1" id="Capa_1" xmlns="http://www.w3.org/2000/svg" xmlns:xlink="http://www.w3.org/1999/xlink" x="0px" y="0px"
	 viewBox="0 0 500 150" style="enable-background:new 0 0 500 150;" xml:space="preserve">
<style type="text/css">
	.st0{fill:#CE836F;}
	.st1{fill-rule:evenodd;clip-rule:evenodd;fill:#FFFFFF;}
	.st2{fill:#FFFFFF;}
</style>
<g>
	<g>
		<path class="st0" d="M109.7,23.8c16.6,11.3,23.2-3.9,67.3,4.4c42.8,8.1,14.3,47.3,20.4,59.4c3.4,6.7,3.2,14,2.7,21.4
			c-0.6,10.3-10.3,18.5-22.3,19c-81.1,3.2-32.9,5.4-136.9,6.6c-8.1,0.1-17-0.1-23.1-5.2c-6.6-5.5-7.7-14.9-8.2-23.3
			C8.1,83.3-6.2,41.2,19.7,30C46.6,18.5,85,6.9,109.7,23.8z"/>
	</g>
	<g>
		<path class="st1" d="M22.4,63.1h-1.7v0.3h9.7v-6.1H30c0,0,0,3.5-1.2,4.7c-1,1-2,1.1-3.7,1.1V51.9c0,0,1.2-0.1,1.7,0.5
			c0.9,0.9,1,2,1,3.6h0.3v-8.6h-0.3c0,1.6-0.1,2.7-1,3.6c-0.6,0.6-1.7,0.5-1.7,0.5V40.8c1.7,0,2.5,0.1,3.5,1.1
			c1.2,1.2,1.2,4.7,1.2,4.7h0.3v-6.1h-9.4v0.3h1.7V63.1L22.4,63.1z"/>
		<path class="st1" d="M48.1,40.8v22.3c1.7,0,2.7-0.1,3.7-1.1c1.2-1.2,1.2-4.7,1.2-4.7h0.3v6.1h-9.7v-0.3h1.7V40.8h-1.7v-0.3h6.1
			v0.3L48.1,40.8L48.1,40.8z"/>
		<path class="st1" d="M70.9,40.8v22.3c1.7,0,2.7-0.1,3.7-1.1c1.2-1.2,1.2-4.7,1.2-4.7h0.3v6.1h-9.7v-0.3h1.7V40.8h-1.7v-0.3h6.1
			v0.3L70.9,40.8L70.9,40.8z"/>
		<path class="st1" d="M91,63.1h-1.7v0.3H99v-6.1h-0.3c0,0,0,3.5-1.2,4.7c-1,1-2,1.1-3.7,1.1V51.9c0,0,1.2-0.1,1.7,0.5
			c0.9,0.9,1,2,1,3.6h0.3v-8.6h-0.3c0,1.6-0.1,2.7-1,3.6c-0.6,0.6-1.7,0.5-1.7,0.5V40.8c1.7,0,2.5,0.1,3.5,1.1
			c1.2,1.2,1.2,4.7,1.2,4.7h0.3v-6.1h-9.4v0.3H91V63.1L91,63.1z"/>
		<path class="st1" d="M97.6,62.5c0-0.3,0.2-0.6,0.6-0.6c0.3,0,0.6,0.2,0.6,0.6c0,0.3-0.2,0.6-0.6,0.6
			C97.8,63.1,97.6,62.8,97.6,62.5L97.6,62.5z M98.6,62.5c0-0.3-0.2-0.5-0.5-0.5c-0.3,0-0.5,0.2-0.5,0.5c0,0.3,0.2,0.5,0.5,0.5
			C98.4,63,98.6,62.8,98.6,62.5L98.6,62.5z M98.4,62.8L98.4,62.8l-0.3-0.3H98v0.3h-0.1v-0.6h0.3c0.2,0,0.2,0.1,0.2,0.2
			c0,0.1-0.1,0.2-0.2,0.2L98.4,62.8L98.4,62.8z M98.1,62.5c0.1,0,0.2,0,0.2-0.1c0-0.1-0.1-0.1-0.2-0.1H98v0.2H98.1L98.1,62.5z"/>
	</g>
	<g>
		<path class="st2" d="M23.2,111H21V76.6h2.2V111z"/>
		<path class="st2" d="M64,112.1L35.1,81.4V111h-2.2V76.1l28.9,30.5v-30H64V112.1z"/>
		<path class="st2" d="M89.6,82.2c-1.6-2.5-3.7-4.1-7-4.1c-3.7,0-6.5,3-6.5,6.6s3.4,5.1,6.2,6.4l6.6,3.4c2.6,1.6,3.9,3.7,3.9,6.8
			c0,5.7-5.2,10-10.8,10c-4.8,0-8.5-3-10.1-7.4l1.9-0.9c1.5,3.7,4.2,6.2,8.3,6.2c4.5,0,8.5-3.6,8.5-8.1c0-3.9-4-5.5-6.9-7L77.5,91
			c-2.3-1.4-3.6-3.4-3.6-6.2c0-5.1,3.6-8.7,8.8-8.7c3.5,0,6.8,1.9,8.4,4.8L89.6,82.2z"/>
		<path class="st2" d="M102.9,111h-2.2V76.6h6.1c2.7,0,5.3,0.2,7.4,2c2.1,1.8,3.1,4.4,3.1,7.1c0,2.5-1,5.2-2.9,6.8
			c-2.1,1.8-5,2.2-7.7,2.2h-3.9V111z M106.9,92.6c2.2,0,4.2-0.3,6-1.9c1.5-1.4,2.2-3.1,2.2-5.2c0-2.1-0.9-4.3-2.6-5.6
			c-1.7-1.3-3.9-1.4-6-1.4h-3.6v14H106.9z"/>
		<path class="st2" d="M126.7,111h-2.2V76.6h2.2V111z"/>
		<path class="st2" d="M153.4,111h-2.5l-11.2-16.3h-1.1V111h-2.2V76.6h4.3c2.8,0,5.5,0,7.8,1.7c2.5,1.7,3.5,4.5,3.5,7.4
			c0,6-4.2,9.1-9.9,9L153.4,111z M141.4,92.6c2.1,0,4.3-0.1,6-1.6c1.6-1.3,2.4-3.4,2.4-5.4c0-2.6-1.2-5.1-3.6-6.2
			c-1.8-0.9-4.2-0.8-6.2-0.8h-1.4v14H141.4z"/>
		<path class="st2" d="M164.3,99.7l-4.6,11.3h-2.2l14.4-35.5l14.4,35.5H184l-4.6-11.3H164.3z M171.9,81l-6.8,16.6h13.5L171.9,81z"/>
	</g>
	<g>
		<path class="st2" d="M235.4,85.9L235.4,85.9l-4.2,23.1h-4.5l7.2-36.5l12,27.6l12-27.6l7.2,36.5h-4.5l-4.1-23.1h-0.1l-10.5,23.9
			L235.4,85.9z"/>
		<path class="st2" d="M272.7,74v20.7c0,5.7,1.7,11,8.5,11s8.5-5.3,8.5-11V74h4.4v22.2c0,7.7-4.8,13.6-12.8,13.6
			s-12.8-5.9-12.8-13.6V74H272.7z"/>
		<path class="st2" d="M310.8,74v22.3c0,6.7-1.3,13.5-9.5,13.5c-2,0-3.8-0.5-5.5-1.5l2.2-3.7c1,0.7,2.2,1.2,3.5,1.2
			c5,0,4.9-5.9,4.9-9.4V74H310.8z"/>
		<path class="st2" d="M316.9,74h18.8v4h-14.5v9.8h14v4h-14v13.2h14.5v4h-18.8V74z"/>
		<path class="st2" d="M362.9,109.1h-5.3l-10.3-14.8h-1.8v14.8h-4.4V74h5.3c3.1,0,6.5,0,9.2,1.6c2.9,1.7,4.6,5,4.6,8.4
			c0,5-3.3,9.2-8.4,9.8L362.9,109.1z M345.5,90.6h1.4c4.5,0,9.3-0.8,9.3-6.4c0-5.5-5.2-6.3-9.5-6.3h-1.2V90.6z"/>
		<path class="st2" d="M366.3,74h18.8v4h-14.5v9.8h14v4h-14v13.2h14.5v4h-18.8V74z"/>
		<path class="st2" d="M406.1,80.7c-1.3-2.2-3-3.3-5.6-3.3c-2.8,0-5.9,1.9-5.9,5c0,2.7,2.7,4.2,4.9,5l2.5,1c5,2,8.7,4.7,8.7,10.6
			c0,6.4-4.9,10.9-11.2,10.9c-5.7,0-10.1-4.2-10.8-9.8l4.4-0.9c0,3.9,3,6.6,6.8,6.6s6.5-3.2,6.5-6.8c0-3.8-3-5.4-6-6.6l-2.4-1
			c-4-1.7-7.6-4-7.6-8.9c0-5.7,5-9.1,10.3-9.1c3.9,0,7.1,1.9,9,5.3L406.1,80.7z"/>
		<path class="st2" d="M438.4,88.7c3.8,0,6.9-1.4,6.9-5.6c0-3.5-2.6-6-6.1-6c-3.2,0-5.3,2-5.8,5H429c0.8-5.8,4.5-8.8,10.3-8.8
			c5.6,0,10.1,3.6,10.1,9.4c0,3.4-1.5,6.2-4.5,7.9c3.4,1.6,5,4.9,5,8.7c0,6.6-4.9,10.5-11.2,10.5c-5.5,0-10.4-3.6-10.7-9.4h4.2
			c0.4,3.4,3.4,5.6,6.8,5.6c3.9,0,6.7-3.1,6.7-6.9c0-4.5-3.1-7.1-7.4-6.8V88.7z"/>
		<path class="st2" d="M461.9,107.1c0,1.5-1.2,2.7-2.7,2.7s-2.7-1.2-2.7-2.7c0-1.4,1.2-2.7,2.7-2.7S461.9,105.7,461.9,107.1z"/>
		<path class="st2" d="M467.1,91.5c0-7.2,3.2-18.3,12.2-18.3c9.1,0,12.2,11.1,12.2,18.3c0,7.2-3.2,18.3-12.2,18.3
			C470.3,109.8,467.1,98.7,467.1,91.5z M471.3,91.5c0,4.8,1.8,14.4,8,14.4c6.3,0,8-9.6,8-14.4c0-4.8-1.8-14.5-8-14.5
			C473.1,77,471.3,86.7,471.3,91.5z"/>
	</g>
</g>
</svg>
